<?xml version="1.0" encoding="utf-8"?>
<!-- Generator: Adobe Illustrator 16.0.0, SVG Export Plug-In . SVG Version: 6.00 Build 0)  -->
<!DOCTYPE svg PUBLIC "-//W3C//DTD SVG 1.1 Tiny//EN" "http://www.w3.org/Graphics/SVG/1.1/DTD/svg11-tiny.dtd">
<svg version="1.1" baseProfile="tiny" id="Layer_1" xmlns="http://www.w3.org/2000/svg" xmlns:xlink="http://www.w3.org/1999/xlink"
	 x="0px" y="0px" width="640px" height="480px" viewBox="0 0 640 480" xml:space="preserve">
<g>
	<path fill="#F8BFCB" d="M16.457,241.762c0-29.185,11.009-46.209,34.946-46.209s34.946,17.025,34.946,46.209
		c0,29.187-11.009,46.211-34.946,46.211S16.457,270.948,16.457,241.762z M65.868,249.443v-15.489
		c0-14.337-3.584-22.913-14.465-22.913s-14.465,8.576-14.465,22.913v15.616c0,14.337,3.584,22.913,14.465,22.913
		S65.868,263.907,65.868,249.443z"/>
	<path fill="#F8BFCB" d="M99.528,286.437v-89.348h34.562c17.537,0,27.394,11.137,27.394,28.417c0,17.281-9.857,28.417-27.394,28.417
		h-15.233v32.514H99.528z M118.857,238.434h10.369c8.96,0,12.033-3.2,12.033-11.008v-3.84c0-7.808-3.072-11.008-12.033-11.008
		h-10.369V238.434z"/>
	<path fill="#F8BFCB" d="M176.839,286.437v-89.348h57.091v15.745h-37.89v20.481h36.609v15.745H196.04v21.633h37.89v15.745H176.839z"
		/>
	<path fill="#F8BFCB" d="M268.999,227.042h-1.408v59.395h-16.385v-89.348h23.041l20.353,59.395h1.408v-59.395h16.385v89.348h-23.041
		L268.999,227.042z"/>
	<path fill="#F8BFCB" d="M348.869,286.437h-18.944v-89.348h34.562c17.537,0,27.394,11.137,27.394,28.417
		c0,12.544-5.761,22.4-15.745,25.217l17.537,35.714h-20.993l-14.977-33.153h-8.833V286.437z M359.878,238.434
		c8.961,0,12.033-3.2,12.033-11.008v-3.84c0-7.808-3.072-11.008-12.033-11.008h-11.009v25.857H359.878z"/>
	<path fill="#F8BFCB" d="M422.597,227.042h-1.408v59.395h-16.385v-89.348h23.041l20.353,59.395h1.408v-59.395h16.385v89.348h-23.041
		L422.597,227.042z"/>
	<path fill="#F8BFCB" d="M481.986,197.088h28.802c23.937,0,35.457,16,35.457,44.673c0,28.674-11.521,44.675-35.457,44.675h-28.802
		V197.088z M509.508,271.332c11.393,0,16.513-7.553,16.513-21.506V233.57c0-13.824-5.12-21.377-16.513-21.377h-8.576v59.139H509.508
		z"/>
	<path fill="#F8BFCB" d="M579.266,286.437h-18.944v-89.348h34.562c17.537,0,27.394,11.137,27.394,28.417
		c0,12.544-5.761,22.4-15.745,25.217l17.537,35.714h-20.993l-14.977-33.153h-8.833V286.437z M590.274,238.434
		c8.961,0,12.033-3.2,12.033-11.008v-3.84c0-7.808-3.072-11.008-12.033-11.008h-11.009v25.857H590.274z"/>
</g>
</svg>
